<svg id="Layer_1" data-name="Layer 1" xmlns="http://www.w3.org/2000/svg" viewBox="0 0 1024 1024"><defs><style>.cls-1{fill:#9fbccc;}.cls-2{fill:#fbf49b;}.cls-3{fill:#516cb3;}</style></defs><title>ich-default</title><path class="cls-1" d="M189.52,16.93H311.44V138.49H189.52Zm0,884.63V243.21H311.44V901.56Z"/><polygon class="cls-2" points="512 815.34 1024 854.07 1024 691.32 512 652.59 512 815.34"/><polygon class="cls-2" points="0 854.07 512 815.34 512 652.59 0 691.32 0 854.07"/><path class="cls-1" d="M473.06,292.48v56.68c-.56,16.83-3.93,32-10.1,44.89a77.23,77.23,0,0,1-24.13,30.31c-11.22,9-26.38,14-46.58,14s-35.91-5.05-47.14-14c-11.22-8.42-18.52-19.08-23.57-30.31-6.17-12.9-9.54-28.06-10.1-44.89v-243c.56-16.27,3.93-31.42,10.1-44.33,5-11.23,12.35-22.45,23.57-30.87s26.94-14,47.14-14,35.36,5.61,46.58,14A78.8,78.8,0,0,1,463,61.83c6.17,12.91,9.54,28.06,10.1,44.33v56.68H416.38V106.16c0-11.22-2.8-19.08-9-25.81-2.8-2.81-7.85-4.49-14-4.49-10.66,0-15.71,7.85-18.51,15.15-1.69,4.49-2.25,9.54-2.81,15.15v243c.56,11.78,3.93,19.64,9.54,25.81a16,16,0,0,0,11.78,4.49c12.91,0,18-6.73,20.77-15.15,1.68-3.93,2.24-9,2.24-15.15V292.48Z"/><path class="cls-1" d="M595.4,199.88c0-5,0-12.91-1.68-18.52-2.25-5.61-6.74-9.54-14-9.54-9.54,0-13.47,7.3-15.15,16.28a118.69,118.69,0,0,0-1.13,14.59v14.59H506.73V204.37a86.67,86.67,0,0,1,21.89-57.8c13.47-15.15,32.55-24.13,54.44-24.13a69.3,69.3,0,0,1,48.26,19.64c12.9,12.34,20.76,29.74,20.76,49.94V380.58c0,27.5,1.69,39.85,3.93,53.32H600.45c-5.05-6.18-5.05-20.77-5.05-24.7h-3.93a62.19,62.19,0,0,1-15.71,18.52c-7.86,6.18-18.52,10.67-29.74,10.67a36.3,36.3,0,0,1-28.06-14c-9.54-10.67-17.4-29.75-17.4-61.73,0-34.24,10.1-58.93,23.57-75.77s30.3-27.49,44.34-34.79,24.69-12.34,26.93-18.52Zm0,85.86c-27.5,11.79-39.28,39.29-39.28,68.47a52.35,52.35,0,0,0,2.8,16.83c2.25,6.74,6.18,11.79,12.91,11.79,12.91,0,23.57-7.86,23.57-18.52Z"/><path class="cls-1" d="M745.81,433.9H689.13v-307h56.68v25.81c1.12-.56,3.36-2.8,6.73-6.17,6.18-6.18,14.59-14.59,24.69-20.2a28.58,28.58,0,0,1,14.6-3.93c15.15,0,25.81,9,32.54,20.2,6.74,11.78,10.11,26.94,10.11,39.84V433.9H777.8v-243c0-11.78-6.74-13.47-13.47-13.47-6.18,0-9.54,3.37-13.47,7.3a80.09,80.09,0,0,0-5.05,7.29Z"/><path class="cls-3" d="M386.44,722H365.57V901.56H311.44V489.09h54.13v170.6h20.87V489.09h54.13V901.56H386.44Z"/><path class="cls-3" d="M597.74,791.57v38.72c0,39.85-14.34,75.76-64.56,75.76-45.65,0-56.74-42.09-56.74-77.44V668.67c0-36.48,16.3-78.57,60-78.57,54.78,0,61.3,41.53,61.3,76.89v91.47H526.66v66.78c0,12.35,2.61,30.87,9.78,30.87,10.43,0,12.39-20.21,12.39-30.87V791.57Zm-71.08-77.44h22.17V670.91c0-15.15-2-31.42-13-31.42-8.48,0-9.13,22.45-9.13,31.42Z"/><path class="cls-3" d="M623.83,901.56V489.09h51.52V901.56Z"/><path class="cls-3" d="M713.17,594.59h51.52v15.72c5.22-10.1,22.18-20.21,33.92-20.21,33.26,0,35.87,40.41,35.87,60V846c-.66,21.88-3.92,60-35.87,60-11.74,0-27.39-10.1-33.92-22.44v123.46H713.17Zm51.52,239.63c0,12.91,3.26,18.52,9.79,18.52s9.13-6.17,9.13-18.52v-174c0-10.66-2-20.76-9.13-20.76s-9.79,10.1-9.79,20.76Z"/><path class="cls-1" d="M255.48,946.86q6.68,6.87,6.68,19v41.23H250.43V969q0-8.44-4.72-13.18t-13.05-4.72q-9,.12-14.57,5.73a22.51,22.51,0,0,0-6.36,14.57v35.68H200v-66.7h11.73v14.12q6.68-14.25,25.34-14.5Q248.8,940,255.48,946.86Z"/><path class="cls-1" d="M333.27,948.75q8,9.15,8,25.41c0,1.68-.05,2.94-.13,3.78h-52.7a22.7,22.7,0,0,0,7.5,14.25,22.2,22.2,0,0,0,15.06,5.3,28.26,28.26,0,0,0,11-2.15,26.58,26.58,0,0,0,8.89-6.05l6.43,6.68a33.77,33.77,0,0,1-11.86,8.2,39.54,39.54,0,0,1-15.38,2.9,35.4,35.4,0,0,1-17.46-4.23,29.54,29.54,0,0,1-11.85-11.91,38.29,38.29,0,0,1,0-35,30.72,30.72,0,0,1,11.79-12,34,34,0,0,1,17.27-4.35Q325.33,939.61,333.27,948.75Zm-2.65,20.11q-.5-9.08-6.05-14.31T310,949.32a21.09,21.09,0,0,0-14.69,5.3q-5.86,5.29-7,14.24Z"/><path class="cls-1" d="M393,1002.15a28.74,28.74,0,0,1-15.64,4.92q-7.93,0-12.86-4.73T359.62,988V951.09h-9.45v-9h9.45v-17.9h11.86v17.9H391.9v9H371.48v34.79q0,5.55,2,8c1.35,1.6,3.36,2.39,6.05,2.39a21.14,21.14,0,0,0,10.34-3.15Z"/><path class="cls-1" d="M396.19,940.37h12.23l18.66,55.1,18.41-55.1h12.23l18.53,55.1,18.41-55.1h12.1l-24.58,66.7H470l-18.41-52.45-18.41,52.45H420.9Z"/><path class="cls-1" d="M560.92,943.9A30.86,30.86,0,0,1,573,955.81a37.36,37.36,0,0,1,0,35,30.71,30.71,0,0,1-12.1,12,39,39,0,0,1-35.56,0,30.82,30.82,0,0,1-12.1-11.92,37.48,37.48,0,0,1,0-35.05,30.86,30.86,0,0,1,12.1-11.91,39,39,0,0,1,35.56,0Zm-29.38,9a20.85,20.85,0,0,0-7.94,8.39,25.47,25.47,0,0,0-2.84,12.16,26.13,26.13,0,0,0,2.84,12.36,20.33,20.33,0,0,0,7.94,8.38,22.75,22.75,0,0,0,11.66,3,22.51,22.51,0,0,0,11.54-3,20.39,20.39,0,0,0,7.94-8.38,26.25,26.25,0,0,0,2.84-12.36,25.58,25.58,0,0,0-2.84-12.16,20.91,20.91,0,0,0-7.94-8.39,22.16,22.16,0,0,0-11.54-3A22.39,22.39,0,0,0,531.54,952.85Z"/><path class="cls-1" d="M614.82,943.84A27.67,27.67,0,0,1,629.19,940v11.35Q619,951,612.67,956.63t-7.18,15.26v35.18H593.76v-66.7h11.73v14.37A24.07,24.07,0,0,1,614.82,943.84Z"/><path class="cls-1" d="M688.58,1007.07l-21.31-32.41-13,13.49v18.92H642.55V913.51h11.73v59.64l32.28-32.78H700.3l-24.84,25.85,27.24,40.85Z"/></svg>