<svg xmlns="http://www.w3.org/2000/svg" viewBox="0 0 1024 1024"><defs><style>.cls-1{fill:#9fbccc;}.cls-2{fill:#fbf49b;}.cls-3{fill:#516cb3;}.cls-4{fill:none;stroke:#fbf49b;stroke-miterlimit:10;stroke-width:55px;}</style></defs><title>ich-circle</title><g id="Layer_4" data-name="Layer 4"><path class="cls-1" d="M287.24,153.74h88.23v88H287.24Zm0,640.17V317.49h88.23V793.91Z"/><polygon class="cls-2" points="520.61 731.51 917.6 761.55 969.59 647.71 520.61 613.74 520.61 731.51"/><polygon class="cls-2" points="128.28 761.19 520.61 731.51 520.61 613.74 54.41 649.01 128.28 761.19"/><path class="cls-1" d="M492.43,353.14v41c-.41,12.18-2.84,23.15-7.31,32.49a56,56,0,0,1-17.46,21.93c-8.13,6.49-19.09,10.15-33.71,10.15s-26-3.66-34.11-10.15a54.81,54.81,0,0,1-17.06-21.93c-4.47-9.34-6.9-20.31-7.31-32.49V218.31c.41-11.77,2.84-22.74,7.31-32.08,3.66-8.12,8.93-16.24,17.06-22.34s19.49-10.15,34.11-10.15,25.58,4.06,33.71,10.15a57.16,57.16,0,0,1,17.46,22.34c4.47,9.34,6.9,20.31,7.31,32.08v41h-41v-41c0-8.12-2-13.8-6.49-18.68-2-2-5.69-3.25-10.16-3.25-7.71,0-11.37,5.69-13.4,11-1.22,3.25-1.62,6.9-2,11V394.16c.41,8.53,2.84,14.21,6.9,18.68a11.65,11.65,0,0,0,8.53,3.25c9.34,0,13-4.88,15-11,1.22-2.84,1.62-6.5,1.62-11v-41Z"/><path class="cls-1" d="M581,286.13c0-3.65,0-9.34-1.22-13.4a10.27,10.27,0,0,0-10.15-6.9c-6.9,0-9.75,5.28-11,11.77a87.09,87.09,0,0,0-.81,10.56v10.56h-41v-9.34a62.78,62.78,0,0,1,15.83-41.83A51.9,51.9,0,0,1,572,230.09,50.17,50.17,0,0,1,607,244.3c9.34,8.94,15,21.53,15,36.15V416.9c0,19.9,1.22,28.83,2.84,38.58h-40.2C581,451,581,440.45,581,437.61h-2.84A45.15,45.15,0,0,1,566.75,451a35.58,35.58,0,0,1-21.53,7.72,26.26,26.26,0,0,1-20.3-10.15c-6.91-7.72-12.59-21.53-12.59-44.68,0-24.77,7.31-42.64,17.06-54.82s21.92-19.9,32.08-25.18S579.34,315,581,310.5Zm0,62.14c-19.9,8.53-28.43,28.42-28.43,49.54a38,38,0,0,0,2,12.19c1.63,4.87,4.47,8.52,9.34,8.52,9.34,0,17.06-5.68,17.06-13.4Z"/><path class="cls-1" d="M689.8,455.48h-41V233.34h41V252c.82-.41,2.44-2,4.88-4.47,4.46-4.46,10.56-10.56,17.87-14.62a20.64,20.64,0,0,1,10.55-2.84c11,0,18.69,6.5,23.56,14.62,4.87,8.53,7.31,19.49,7.31,28.83V455.48H713V279.64c0-8.53-4.87-9.75-9.75-9.75-4.46,0-6.9,2.44-9.74,5.28a58.85,58.85,0,0,0-3.66,5.28Z"/><path class="cls-3" d="M429.74,664h-15.1V793.91H375.47V495.42h39.17V618.88h15.1V495.42h39.18V793.91H429.74Z"/><path class="cls-3" d="M582.66,714.31v28c0,28.84-10.39,54.83-46.73,54.83-33,0-41.06-30.46-41.06-56V625.38c0-26.4,11.8-56.86,43.42-56.86,39.65,0,44.37,30.05,44.37,55.64v66.19H531.21v48.33c0,8.93,1.89,22.34,7.08,22.34,7.55,0,9-14.62,9-22.34V714.31Zm-51.45-56h16V627c0-11-1.42-22.74-9.44-22.74-6.13,0-6.61,16.24-6.61,22.74Z"/><path class="cls-3" d="M601.53,793.91V495.42h37.29V793.91Z"/><path class="cls-3" d="M666.19,571.77h37.28v11.37c3.78-7.31,16-14.62,24.54-14.62,24.07,0,26,29.24,26,43.45V753.71c-.47,15.83-2.83,43.45-26,43.45-8.49,0-19.82-7.31-24.54-16.25v89.35H666.19Zm37.28,173.41c0,9.34,2.36,13.4,7.08,13.4s6.61-4.47,6.61-13.4V619.28c0-7.71-1.42-15-6.61-15s-7.08,7.31-7.08,15Z"/><path class="cls-1" d="M335,826.69q4.84,5,4.84,13.73v29.84h-8.49V842.7q0-6.11-3.42-9.53t-9.44-3.42a14.55,14.55,0,0,0-10.54,4.15,16.32,16.32,0,0,0-4.61,10.54v25.82h-8.48V822h8.48v10.22q4.85-10.31,18.34-10.49Q330.14,821.72,335,826.69Z"/><path class="cls-1" d="M391.27,828.06q5.75,6.62,5.75,18.38c0,1.22,0,2.13-.09,2.74H358.79a16.39,16.39,0,0,0,5.43,10.31,16,16,0,0,0,10.9,3.83,20.28,20.28,0,0,0,8-1.55,19.08,19.08,0,0,0,6.44-4.38l4.65,4.84a24.4,24.4,0,0,1-8.58,5.93,28.56,28.56,0,0,1-11.13,2.1,25.65,25.65,0,0,1-12.64-3.06,21.42,21.42,0,0,1-8.57-8.62,25.89,25.89,0,0,1-3.06-12.68,25.62,25.62,0,0,1,3.06-12.64,22.21,22.21,0,0,1,8.53-8.67,24.59,24.59,0,0,1,12.5-3.15Q385.52,821.44,391.27,828.06Zm-1.92,14.55Q389,836,385,832.26t-10.58-3.79a15.28,15.28,0,0,0-10.63,3.83,16,16,0,0,0-5.06,10.31Z"/><path class="cls-1" d="M434.52,866.7a20.81,20.81,0,0,1-11.32,3.56,12.85,12.85,0,0,1-9.3-3.42q-3.57-3.42-3.56-10.36V829.75H403.5v-6.48h6.84v-13h8.58v13H433.7v6.48H418.92v25.18c0,2.68.48,4.59,1.46,5.75a5.4,5.4,0,0,0,4.37,1.73,15.31,15.31,0,0,0,7.49-2.28Z"/><path class="cls-1" d="M436.8,822h8.85l13.5,39.87L472.47,822h8.85l13.42,39.87L508.06,822h8.76L499,870.26h-8.85l-13.32-38-13.32,38h-8.85Z"/><path class="cls-1" d="M556,824.55a22.27,22.27,0,0,1,8.76,8.62,25.14,25.14,0,0,1,3.14,12.64,25.4,25.4,0,0,1-3.14,12.68,22.27,22.27,0,0,1-8.76,8.67,28.24,28.24,0,0,1-25.73,0,22.24,22.24,0,0,1-8.76-8.63,27.1,27.1,0,0,1,0-25.36,22.15,22.15,0,0,1,8.76-8.62,28.16,28.16,0,0,1,25.73,0ZM534.75,831a15.15,15.15,0,0,0-5.75,6.07,18.53,18.53,0,0,0-2,8.81,19,19,0,0,0,2,8.94,14.77,14.77,0,0,0,5.75,6.07,16.47,16.47,0,0,0,8.44,2.14,16.28,16.28,0,0,0,8.34-2.14,14.77,14.77,0,0,0,5.75-6.07,19,19,0,0,0,2.06-8.94,18.53,18.53,0,0,0-2.06-8.81,15.15,15.15,0,0,0-5.75-6.07,16,16,0,0,0-8.34-2.19A16.21,16.21,0,0,0,534.75,831Z"/><path class="cls-1" d="M595,824.5a20.11,20.11,0,0,1,10.4-2.78v8.21q-7.38-.27-11.95,3.83a16.23,16.23,0,0,0-5.2,11v25.46h-8.49V822h8.49v10.4A17.52,17.52,0,0,1,595,824.5Z"/><path class="cls-1" d="M648.39,870.26,633,846.81l-9.4,9.76v13.69h-8.49v-67.7h8.49v43.15L646.93,822h9.94l-18,18.71,19.71,29.56Z"/><circle class="cls-4" cx="512" cy="512" r="474"/></g></svg>