<svg xmlns="http://www.w3.org/2000/svg" viewBox="0 0 1024 512"><defs><style>.cls-1{fill:#9fbccc;}.cls-2{fill:#fbf49b;}.cls-3{fill:#516cb3;}</style></defs><title>ich-horizontal</title><g id="Layer_3" data-name="Layer 3"><path class="cls-1" d="M124.43,49.17h53.8v53.65h-53.8Zm0,390.41V149h53.8V439.58Z"/><polygon class="cls-2" points="739.4 405.14 1024 436.66 1024 337.85 739.4 306.33 739.4 405.14"/><polygon class="cls-2" points="0 436.66 739.4 405.14 739.4 306.33 0 337.85 0 436.66"/><path class="cls-1" d="M312.83,333v42.68c-.47,12.68-3.28,24.09-8.42,33.81a59.55,59.55,0,0,1-20.11,22.83c-9.35,6.76-22,10.56-38.82,10.56s-29.93-3.8-39.28-10.56a58.15,58.15,0,0,1-19.64-22.83c-5.15-9.72-7.95-21.13-8.42-33.81v-183c.47-12.26,3.27-23.67,8.42-33.39,4.21-8.45,10.29-16.9,19.64-23.24s22.45-10.57,39.28-10.57S275,129.7,284.3,136a60.65,60.65,0,0,1,20.11,23.24c5.14,9.72,7.95,21.13,8.42,33.39v42.69H265.59V192.67c0-8.45-2.34-14.37-7.48-19.44-2.34-2.12-6.55-3.38-11.69-3.38-8.89,0-13.1,5.91-15.43,11.41-1.41,3.38-1.88,7.18-2.34,11.41v183c.46,8.88,3.27,14.79,7.95,19.44a14.17,14.17,0,0,0,9.82,3.38c10.75,0,15-5.07,17.3-11.41,1.41-3,1.87-6.76,1.87-11.41V333Z"/><path class="cls-1" d="M414.78,263.25c0-3.8,0-9.72-1.4-13.95-1.87-4.22-5.62-7.18-11.7-7.18-7.95,0-11.22,5.49-12.62,12.25a80.63,80.63,0,0,0-.94,11v11H340.89v-9.72a61.83,61.83,0,0,1,18.24-43.53c11.22-11.41,27.12-18.17,45.36-18.17a61.11,61.11,0,0,1,40.22,14.79A48.94,48.94,0,0,1,462,257.33v142c0,20.71,1.41,30,3.28,40.15H419c-4.21-4.65-4.21-15.64-4.21-18.6h-3.27a48.51,48.51,0,0,1-13.1,13.95,43.73,43.73,0,0,1-24.79,8,31.6,31.6,0,0,1-23.38-10.56c-7.95-8-14.5-22.4-14.5-46.49,0-25.79,8.42-44.38,19.65-57.06s25.25-20.71,36.94-26.2,20.58-9.3,22.45-13.95Zm0,64.66C391.86,336.79,382,357.5,382,379.48a35.92,35.92,0,0,0,2.34,12.67c1.87,5.08,5.15,8.88,10.76,8.88,10.75,0,19.64-5.92,19.64-13.95Z"/><path class="cls-1" d="M540.12,439.49H492.89V208.31h47.23v19.44c.94-.42,2.81-2.11,5.61-4.65,5.15-4.65,12.16-11,20.58-15.22a25.81,25.81,0,0,1,12.16-2.95c12.63,0,21.51,6.76,27.12,15.21a58.48,58.48,0,0,1,8.42,30V439.49H566.78v-183c0-8.88-5.61-10.15-11.23-10.15-5.14,0-7.95,2.54-11.22,5.5a62.39,62.39,0,0,0-4.21,5.49Z"/><path class="cls-3" d="M655.69,339.7h-11.6v99.79H614V210.3h30.08v94.79h11.6V210.3h30.07V439.49H655.69Z"/><path class="cls-3" d="M773.1,378.37v21.52c0,22.13-8,42.09-35.88,42.09-25.36,0-31.52-23.39-31.52-43V310.08c0-20.27,9-43.66,33.33-43.66,30.44,0,34.07,23.08,34.07,42.72V360H733.6v37.11c0,6.86,1.45,17.15,5.43,17.15,5.8,0,6.89-11.23,6.89-17.15V378.37Zm-39.5-43h12.32v-24c0-8.42-1.09-17.47-7.25-17.47-4.71,0-5.07,12.48-5.07,17.47Z"/><path class="cls-3" d="M787.59,439.49V210.3h28.63V439.49Z"/><path class="cls-3" d="M837.24,268.92h28.62v8.73c2.9-5.61,12.33-11.23,18.85-11.23,18.48,0,19.93,22.46,19.93,33.37V408.62c-.36,12.16-2.18,33.36-19.93,33.36-6.52,0-15.22-5.61-18.85-12.47v68.6H837.24Zm28.62,133.15c0,7.17,1.82,10.29,5.44,10.29s5.07-3.43,5.07-10.29V305.4c0-5.92-1.08-11.54-5.07-11.54s-5.44,5.62-5.44,11.54Z"/><path class="cls-1" d="M442.82,456.7q4.26,4.38,4.25,12.07V495h-7.46V470.78c0-3.58-1-6.38-3-8.38s-4.78-3-8.3-3A12.8,12.8,0,0,0,419,463,14.33,14.33,0,0,0,415,472.3V495h-7.46V452.57H415v9q4.26-9.07,16.12-9.23Q438.58,452.33,442.82,456.7Z"/><path class="cls-1" d="M492.31,457.91q5.06,5.8,5.05,16.16c0,1.07,0,1.87-.08,2.4H463.75a14.47,14.47,0,0,0,4.78,9.07,14.12,14.12,0,0,0,9.58,3.36,18,18,0,0,0,7-1.36,16.84,16.84,0,0,0,5.65-3.85l4.09,4.25a21.35,21.35,0,0,1-7.54,5.22,25.1,25.1,0,0,1-9.78,1.84,22.48,22.48,0,0,1-11.11-2.69,18.84,18.84,0,0,1-7.54-7.58,24.43,24.43,0,0,1,0-22.25,19.48,19.48,0,0,1,7.5-7.62,21.6,21.6,0,0,1,11-2.77Q487.26,452.09,492.31,457.91Zm-1.69,12.79a12.3,12.3,0,0,0-13.15-12.43,13.38,13.38,0,0,0-9.34,3.37,14.13,14.13,0,0,0-4.46,9.06Z"/><path class="cls-1" d="M530.32,491.87a18.22,18.22,0,0,1-9.94,3.13,11.28,11.28,0,0,1-8.18-3q-3.14-3-3.13-9.1v-23.5h-6V453.7h6V442.31h7.54V453.7h13v5.69h-13v22.14q0,3.53,1.28,5.05a4.74,4.74,0,0,0,3.85,1.52,13.44,13.44,0,0,0,6.58-2Z"/><path class="cls-1" d="M532.33,452.57h7.78L552,487.62l11.71-35.05h7.78l11.78,35.05L595,452.57h7.7L587,495h-7.78l-11.7-33.36L555.83,495h-7.78Z"/><path class="cls-1" d="M637.11,454.82a19.56,19.56,0,0,1,7.7,7.58,23.73,23.73,0,0,1,0,22.25,19.4,19.4,0,0,1-7.7,7.62,24.79,24.79,0,0,1-22.62,0,19.62,19.62,0,0,1-7.7-7.58,23.88,23.88,0,0,1,0-22.29,19.69,19.69,0,0,1,7.7-7.58,24.79,24.79,0,0,1,22.62,0Zm-18.69,5.69a13.33,13.33,0,0,0-5,5.34,16.31,16.31,0,0,0-1.8,7.74,16.74,16.74,0,0,0,1.8,7.86,13,13,0,0,0,5,5.33,14.49,14.49,0,0,0,7.42,1.88,14.3,14.3,0,0,0,7.34-1.88,12.93,12.93,0,0,0,5.05-5.33,16.62,16.62,0,0,0,1.81-7.86,16.2,16.2,0,0,0-1.81-7.74,13.26,13.26,0,0,0-5.05-5.34,14.13,14.13,0,0,0-7.34-1.92A14.32,14.32,0,0,0,618.42,460.51Z"/><path class="cls-1" d="M671.4,454.78a17.65,17.65,0,0,1,9.14-2.45v7.22q-6.49-.24-10.51,3.37a14.25,14.25,0,0,0-4.57,9.7V495H658V452.57h7.46v9.15A15.35,15.35,0,0,1,671.4,454.78Z"/><path class="cls-1" d="M718.31,495l-13.55-20.61L696.5,483v12H689V435.49h7.46v37.94L717,452.57h8.74L710,469l17.33,26Z"/></g></svg>